<svg xmlns="http://www.w3.org/2000/svg" viewBox="0 0 240 240" width="240" height="240" role="img" aria-label="International Literacy Crusade seal">
  <title>International Literacy Crusade</title>
  <defs>
    <path id="ilc-ring-top" d="M29.4,136 A92,92 0 1,1 210.6,136" fill="none"/>
  </defs>

  <circle cx="120" cy="120" r="116" fill="none" stroke="#17242E" stroke-width="4.5"/>
  <circle cx="120" cy="120" r="81" fill="none" stroke="#0F5F57" stroke-width="1.8"/>

  <text font-family="Figtree, Helvetica, Arial, sans-serif" font-size="13.5" font-weight="700" fill="#17242E">
    <textPath href="#ilc-ring-top" startOffset="50%" text-anchor="middle" textLength="288" lengthAdjust="spacing">INTERNATIONAL LITERACY CRUSADE</textPath>
  </text>

  <path d="M120,205.7 L123.29,214.17 L132.36,214.68 L125.33,220.43 L127.64,229.22 L120,224.3 L112.36,229.22 L114.67,220.43 L107.64,214.68 L116.71,214.17 Z"
        fill="#E5A93F" stroke="#17242E" stroke-width="1.6" stroke-linejoin="round"/>

  <g fill="#E5A93F">
    <path d="M27.44 148.19 L32.04 153.69 L27.44 159.19 L22.84 153.69 Z"/>
    <path d="M212.56 148.19 L217.16 153.69 L212.56 159.19 L207.96 153.69 Z"/>
  </g>

  <circle cx="120" cy="120" r="72" fill="#E5A93F"/>
  <circle cx="120" cy="120" r="72" fill="none" stroke="#17242E" stroke-width="2.4"/>

  <g stroke="#17242E" stroke-width="3" stroke-linejoin="round" stroke-linecap="round" fill="none">
    <path d="M120 96 L98 91 L98 79 L120 84 Z"/>
    <path d="M120 96 L142 91 L142 79 L120 84 Z"/>
    <path d="M120 84 L120 96"/>
  </g>

  <text x="120" y="156" text-anchor="middle" font-family="Fraunces, Georgia, 'Times New Roman', serif"
        font-size="56" font-weight="800" letter-spacing="2" fill="#17242E">ILC</text>
</svg>
